# xmcd
#
# Track frame offsets:
#	150
#	19566
#	31433
#	52216
#	66239
#	81271
#	104510
#	121664
#	138678
#	154554
#
# Disc length: 2451 seconds
#
# Revision: 3
# Processed by: cddbd v1.5.2PL0 Copyright (c) Steve Scherf et al.
# Submitted via: EasyCDDAExtractor 16.0.1.1
#
DISCID=8509910a
DTITLE=Thorbjørn Risager - Track Record
DYEAR=2010
DGENRE=Blues
TTITLE0=Rock 'N' Roll Ride
TTITLE1=Baby Please Don't Go
TTITLE2=Let´s Go Down
TTITLE3=You Walked Right In
TTITLE4=7 Steps To Heaven
TTITLE5=Stand Beside Me
TTITLE6=Eyes That Turned Away
TTITLE7=Rhythms Of The Night
TTITLE8=I'll Be Moving On
TTITLE9=Bells Of Joy
EXTD=
EXTT0=
EXTT1=
EXTT2=
EXTT3=
EXTT4=
EXTT5=
EXTT6=
EXTT7=
EXTT8=
EXTT9=
PLAYORDER=
